<svg width="290" height="59" xmlns="http://www.w3.org/2000/svg"><title>background</title><path fill="none" d="M-1-1h292v61H-1z"/><title>Layer 1</title><g stroke="#545454"><path stroke-linecap="square" stroke-width=".862" fill="#16bcff" d="M250.625 58.063q.922.01.931-.913l.104-10.902 4.193.04q.839.007.847-.831l.094-9.98q.009-.922-.829-.93l-4.194-.04.288-30.191q.008-.922-.914-.931l-12.076-.115q-.503-.005-.844.495l-17.67 32.458-.084 8.89q-.008.838.83.846l17.528.166-.104 10.903q-.009.922.914.93l10.986.105zm-17.303-23.732q1.197-2.42 2.136-4.131.938-1.71 2.135-4.047.426-.751.769-1.46.342-.71.77-1.545-.093.838-.1 1.676l-.014 1.426-.078 8.135-5.618-.054zm55.153 24.092q.922.01.931-.913l.105-11.07q.008-.839-.914-.848l-13.67-.13q.34-.416.551-.623l.381-.374.339-.333.593-.58-.001.083q2.286-2.327 4.492-4.906 2.205-2.579 3.952-5.498 1.747-2.918 2.827-6.263 1.08-3.344 1.117-7.202.028-2.935-.74-5.92-.769-2.985-2.759-5.394-1.99-2.41-5.33-3.909-3.341-1.5-8.373-1.547-3.69-.035-7.221.938-3.532.972-5.641 2.21-.59.33-.428.919l1.92 9.747q.163.505.539.676.376.172.798-.076 1.602-.907 3.537-1.602 1.936-.694 4.116-.674 2.684.026 4.053 1.549 1.37 1.522 1.348 3.87-.022 2.265-.883 4.563-.86 2.298-2.436 4.8-1.575 2.5-3.74 5.248-2.165 2.747-4.795 5.993h.083l-5.94 7.325-.083 8.721q-.009.923.914.932l30.358.288z"/><path stroke-linejoin="round" stroke-linecap="round" stroke-width=".862" fill="#16bcff" d="M2.323 0l-.105 11.053c12.201.116 21.979 7.615 21.892 16.79-.087 9.174-10.006 16.486-22.207 16.37l-.105 11.053c20.285.193 36.867-12.03 37.012-27.284C38.955 12.73 22.609.193 2.323 0zm6.492 38.466C3.664 32.467 3.756 22.83 9.02 16.93l-2.331-2.715C.115 21.584 0 33.644 6.433 41.135l2.382-2.669zm4.866-16.107l-2.331-2.715c-3.942 4.419-4.011 11.66-.153 16.153l2.381-2.67c-2.575-3-2.529-7.818.103-10.768zm2.33 2.714c-1.31 1.468-1.333 3.891-.051 5.384l2.382-2.67-2.331-2.714z"/><path stroke-linecap="square" stroke-width=".678" fill-opacity=".196" fill="#545454" d="M40.988 55.21l33.877.323.073-7.572-24.277-.23.155-16.237 18.5.176.07-7.494-18.5-.176.14-14.675 23.808.227.072-7.572-33.409-.318-.509 53.549zm53.574.51l9.523.09 19.4-53.368-8.977-.085-14.366 41.238-.234-.002L86.251 2.088l-10.07-.096L94.562 55.72zm31.172.297l9.68.092.508-53.549-9.679-.092-.51 53.549zm38.735 1.227c6.4.06 11.331-1.22 15.018-3.136l.07-7.416c-3.212 1.297-7.13 2.821-13.218 2.763-11.241-.107-15.468-7.095-15.352-19.35l.026-2.732c.121-12.724 6.336-17.66 15.625-17.573 4.917.047 8.578.94 12.7 2.62l.07-7.494c-3.26-1.827-7.466-2.882-13.399-2.938-13.894-.132-25.204 7.02-25.387 26.3l-.019 1.952c-.171 18.032 8.957 26.862 23.866 27.004zm19.159-.677l33.877.323.072-7.572-24.276-.231.154-16.236 18.5.176.071-7.494-18.5-.176.14-14.675 23.808.227.072-7.572-33.41-.318-.508 53.548z"/></g></svg>