<svg width="150" height="30" viewBox="0 0 1597 321" xmlns="http://www.w3.org/2000/svg"><path fill="none" d="M0 0h1597v321H0v-19h78.99c35.3-.6 71.36-9.02 100.75-29.25 23.57-15.88 41.73-39.61 50.65-66.61 5.75-17.09 8.05-35.18 8.13-53.16-.05-14.15-1.63-28.37-5.62-41.97-5.24-18.24-14.8-35.26-27.85-49.06-19.81-21.11-46.1-35.47-73.83-43.24-20.22-5.68-41.29-7.92-62.25-7.97-22.99.04-45.98-.02-68.97.03V0z"/><path fill="#818285" d="M1363.75 18.81c4.69-6.03 8.75-12.56 13.89-18.22.32 65.06-.08 130.12.2 195.18 9.31 0 18.63-.14 27.95.08-.06 13.7-.06 27.4 0 41.1-9.35.11-18.68.02-28.02.05-.03 10.72-.05 21.44.01 32.17-15.78.07-31.57.28-47.35-.11.13-10.69.06-21.38.05-32.07-42.61-.01-85.22.05-127.82-.02 53.55-72.83 107.43-145.42 161.09-218.16z"/><path fill="#269ccc" d="M887.03 41.08c25.66-20.98 57.78-34 90.91-36.07 19.23-1.12 38.81-.39 57.54 4.42 14.03 4.03 27.52 9.91 40.42 16.7-10.61 12.75-21.7 25.1-32.38 37.79-4.21-2.47-8.71-4.44-13.48-5.52-13.74-3.23-27.96-3.76-42.02-3.66-19.62-.34-39.16 5.89-55.31 16.96-14.13 9.71-26.48 22.28-34.93 37.26-9.07 15.96-12.52 34.73-10.97 52.94 1.26 18.55 7.64 36.74 18.51 51.85 10.72 14.9 24.89 27.59 41.7 35.2 18.95 8.71 40.51 10.1 60.96 7.15 12.88-1.81 25.85-6.43 35.22-15.78 10.9 14.74 21.98 29.36 32.47 44.39-26.43 14.65-56.12 24.9-86.65 24.31-34.85.36-69.7-11.4-96.97-33.14-25.09-19.67-45.46-46.2-54.76-76.93-6.22-20.31-8.07-41.91-5.76-63 2.16-19.75 9.02-38.91 19.68-55.67 9.55-15.02 22-28.04 35.82-39.2zM462.8 10.45c20.64.08 41.28.07 61.92.01 24.27 55.05 48.26 110.23 72.45 165.32 1.68 3.89 3.26 7.83 5.31 11.55 25.72-58.96 51.63-117.83 77.31-176.8 20.39-.1 40.77.02 61.15-.05-43.18 97.27-86.57 194.45-129.83 291.69-2.9 6.06-5.09 12.49-8.56 18.26-43.67-96.36-87.11-192.82-130.71-289.2-2.94-6.96-6.55-13.64-9.04-20.78zm289.3-.03c18.6.13 37.2.13 55.79 0 .25 50.54.04 101.08.11 151.61-.06 46.85.12 93.69-.09 140.53-18.6-.08-37.2-.12-55.79.02-.28-50.52-.04-101.05-.12-151.58.07-46.86-.14-93.72.1-140.58zm342.47.08c31.13-.53 62.28-.11 93.41-.27 16.15-.48 32.31-.11 48.47-.23.53 18.72.71 37.45 1.39 56.16-29.01.19-58.02.06-87.03.07-.12 18-.04 36-.05 54 26.93.06 53.85-.03 80.77.05-.02 18.2-.11 36.41.05 54.61-26.94.25-53.87.04-80.81.11.01 23.26-.12 46.52.07 69.78 28.99-.03 57.99-.1 86.99.04-.65 19.22-.85 38.45-1.38 57.67-47.32.01-94.63.04-141.94-.01.02-97.33-.11-194.66.06-291.98zM0 10.77c22.99-.05 45.98.01 68.97-.03 20.96.05 42.03 2.29 62.25 7.97 27.73 7.77 54.02 22.13 73.83 43.24 13.05 13.8 22.61 30.82 27.85 49.06 3.99 13.6 5.57 27.82 5.62 41.97-.08 17.98-2.38 36.07-8.13 53.16-8.92 27-27.08 50.73-50.65 66.61-29.39 20.23-65.45 28.65-100.75 29.25H0V10.77z"/><path fill="#818285" d="M1476.61 15.5c14.6-4.85 30.24-5.44 45.47-4.34 15.98 1.22 31.4 7.75 43.6 18.1 12.34 10.48 22.51 24.01 27.28 39.62 2.19 6.87 2.77 14.09 3.9 21.18.67 4.1-1.1 8.01-1.46 12.05-1.76 15.18-8.21 29.68-17.98 41.39-14.11 16.87-28.27 33.7-42.39 50.56-8.41 10.27-17.33 20.13-25.4 30.66 28.79.09 57.58-.05 86.37.07-.01 14.81 0 29.62 0 44.43-61.76.02-123.52.12-185.28-.05 37.91-45.52 76.17-90.75 114.21-136.15 8.72-10.47 18.52-20.8 22.66-34.1 3.17-9.49.54-20.22-5.62-27.91-6.43-8-15.6-14.49-26.06-15.4-7.64-.59-15.54.41-22.47 3.79-8.31 3.93-15.02 11.13-18.19 19.76-2.32 5.89-2.85 12.29-2.76 18.56-16.29-.03-32.58.21-48.86-.12 1.91-19.39 6.13-39.27 17.36-55.58 8.43-12.55 21.28-21.84 35.62-26.52zM256.04 14.22c39.68.26 79.35-.36 119.03-.22 25.97.14 51.93-.46 77.9-.24.46 25.6 1.15 51.2 1.7 76.8-37.9-.14-75.8-.01-113.7-.07-28.3.55-56.62.1-84.92.3-.08-25.53-.07-51.05-.01-76.57z"/><path fill="#989a9d" d="M1357.1 36.85c4.78-7.28 10.08-14.27 15.59-21.02.43 61.56-.18 123.14.3 184.7 1.33.15 2.68.3 4.04.46-.1 10.27.08 20.55-.05 30.82-1.35.17-2.68.35-4 .53-.43 10.55-.01 21.12-.16 31.68-5.28.33-10.56.13-15.84.08.07-75.75-.17-151.51.12-227.25z"/><path fill="#88898c" d="M1511.14 16.16c6.64-.33 13.49-.68 19.86 1.64 0 12.33-.02 24.66.11 36.99-6.39-2.64-13.08-4.57-19.99-5.12-.27-11.16-.13-22.34.02-33.51z"/><path fill="#909295" d="M1531 17.8c7.16 1.39 14 4.08 20.5 7.36l-.03.42c-.83 16.55-.18 33.15-.37 49.71-4.94-8.29-11.68-15.51-19.99-20.5-.13-12.33-.11-24.66-.11-36.99z"/><path fill="#6d6e71" d="M261.1 19.2c4.48-.03 8.98-.25 13.44.25 11.42 1.39 22.94.24 34.41.7.19 21.57.11 43.14.01 64.7-15.95.24-31.9-.06-47.85.13-.2-21.92-.17-43.85-.01-65.78z"/><path fill="#737477" d="M274.54 19.45c6.43-1.14 12.98-.38 19.46-.59 10.68-.21 21.35.52 32.03.18-.12 21.94.24 43.89-.13 65.83-4.8-.12-9.61.09-14.36.83-6.16.87-12.39.3-18.58.43-10.61-.09-21.21.23-31.81-.1l-.04-1.05c15.95-.19 31.9.11 47.85-.13.1-21.56.18-43.13-.01-64.7-11.47-.46-22.99.69-34.41-.7z"/><path fill="#7b7c7f" d="M326.03 19.04c7.96-.08 15.92-.12 23.88.09-.02 21.84.11 43.69.01 65.54-7.14 1.92-14.56 1.03-21.85 1.42-5.51.04-11.07.65-16.53-.39 4.75-.74 9.56-.95 14.36-.83.37-21.94.01-43.89.13-65.83z"/><path fill="#8a8c8f" d="M367.1 19.19c7.3-.13 14.61-.38 21.92-.12.03 22-.02 43.99-.04 65.99-7.27.22-14.54 0-21.81-.14-.42-8.28-.12-16.58-.17-24.86.05-13.62-.26-27.25.1-40.87z"/><path fill="#929497" d="M389.02 19.07c6.67.13 13.35-.27 20.03.01.01 22.03.08 44.07-.02 66.11-6.68.36-13.37.01-20.05-.13.02-22 .07-43.99.04-65.99z"/><path fill="#9b9da0" d="M409.05 19.08c8.96-.25 17.93-.54 26.9-.28-.06 22.16 0 44.32 0 66.47-8.97.14-17.95.09-26.92-.08.1-22.04.03-44.08.02-66.11z"/><path fill="#a3a5a8" d="M435.95 18.8c4.01-.08 8.02-.07 12.02 0 .6 10.41.16 20.83.81 31.23.16 11.74.77 23.47.5 35.21-4.44.18-8.89.18-13.33.03 0-22.15-.06-44.31 0-66.47z"/><path fill="#757679" d="M1466.52 25.14c5.89-2.72 11.81-5.79 18.43-6.22.3 11 .04 22 .17 33-.08 2.76.45 6.16-2.2 7.93-6.22 5.13-10.83 12.15-13.23 19.84-1.36 4.15-.97 8.69-2.65 12.76-.23-15.17.07-30.34-.09-45.51-.16-7.12.44-14.26-.39-21.36l-.04-.44z"/><path fill="#6d6e71" d="M1444.65 45.61c5.58-8.25 12.93-15.54 21.91-20.03.83 7.1.23 14.24.39 21.36.16 15.17-.14 30.34.09 45.51l.02.34c-12.61-.04-25.22.24-37.82-.06 1.88-16.51 6.24-33.08 15.41-47.12z"/><path fill="#9a9c9f" d="M1551.1 75.29c.19-16.56-.46-33.16.37-49.71 10.84 6.24 19.99 15.13 27.2 25.3l-.06.44c-.94 5.17-.79 10.43-.65 15.65-.03 14.66-.07 29.32-.05 43.98.19 7.46-.49 14.96.47 22.4l.05.46c-5.03 7.08-10.92 13.49-16.48 20.15-3.73 4.06-6.91 8.62-10.96 12.39.08-20.24.03-40.49 0-60.73 1.21-5.16 3.4-10.19 3.17-15.6.2-5.12-1.8-9.88-3.06-14.73z"/><path fill="#909295" d="M1344.47 53.47c4.14-5.58 8.06-11.37 12.63-16.62-.29 75.74-.05 151.5-.12 227.25-6.99.27-13.99.07-20.97-.24-.35-10.54.11-21.09-.18-31.64-.7-.1-2.08-.32-2.78-.43.04-10.14-.1-20.28.07-30.41 1.33-.73 3.14-1.38 2.74-3.28.13-14.03-.04-28.07.06-42.1-.26-10.77.47-21.56-.37-32.31-.55.35-1.64 1.06-2.19 1.42-.6-18.46-.29-36.96-.27-55.42 3.16-5.82 7.77-10.69 11.38-16.22z"/><path fill="#a2a4a7" d="M1577.96 66.97c-.14-5.22-.29-10.48.65-15.65 17.41 23.67 16.32 58.22-.23 82.03-.96-7.44-.28-14.94-.47-22.4-.02-14.66.02-29.32.05-43.98z"/><path fill="#fff" d="M55 60.87c28.25.35 57.48 3.26 83.06 16.14 16.38 8.08 30.26 21.65 37.37 38.6 7.63 18.04 8.91 38.29 6.28 57.54-2.46 18.45-10.78 36.31-24.52 49.05-19.29 18.23-45.79 26.75-71.8 29.01-10.1 1.02-20.25.77-30.39.79-.01-63.71.01-127.42 0-191.13z"/><path fill="#898b8e" d="M1324.99 80.01c2.71-3.43 4.72-7.45 8.1-10.32-.02 18.46-.33 36.96.27 55.42l.06.86c-4.61 6.02-8.88 12.32-13.89 18.02-.99-2.53-.65-5.29-.68-7.93.12-14.69.06-29.37.03-44.05-.3-4.85 3.55-8.34 6.11-12z"/><path fill="#8e9093" d="M1542.9 118.95c3.19-4.13 5.26-8.96 8.09-13.33.03 20.24.08 40.49 0 60.73-.09 1.2-1.05 2.07-1.7 2.99-9 10.37-17.79 20.91-26.77 31.29-1.04-18.6-.04-37.27-.51-55.89 6.85-8.69 14.44-16.78 20.89-25.79z"/><path fill="#818285" d="M367.96 122.51c28.32-.56 56.64-.08 84.96-.31.63 25.58 1.06 51.17 1.82 76.75-66.24.11-132.49.02-198.74.05 0-25.42-.01-50.83 0-76.24 12.32-.1 24.64.19 36.95-.26 25 0 50.01-.01 75.01.01z"/><path fill="#8d8f92" d="M369.1 128.35c13.56-1.89 27.27-1.11 40.91-1.55 6.8.11 13.67-.69 20.39.67-2.13.17-4.26.34-6.38.42-7.65-.08-15.29.01-22.93.33-.24 21.9-.04 43.8-.1 65.71-10.61.34-21.22-.08-31.82-.18-.4-21.8-.05-43.6-.07-65.4z"/><path fill="#a1a3a6" d="M430.4 127.47c5.82-.41 11.67-.18 17.5-.23.7 7.54.36 15.12.51 22.68.67 14.69 1.11 29.4.86 44.1-8.42.19-16.83-.24-25.25-.05.02-22.03.04-44.05 0-66.08 2.12-.08 4.25-.25 6.38-.42z"/><path fill="#6d6e71" d="M261.05 127.94c15.99-.08 31.98-.42 47.97-.16-.14 22.05.12 44.1-.04 66.15-15.97.11-31.95.11-47.92.01-.11-22-.06-44-.01-66z"/><path fill="#727376" d="M309.02 127.78c4.34-.09 8.69-.01 13.04.17-.12 22-.01 44.01-.03 66.01-4.36.1-8.71.11-13.05-.03.16-22.05-.1-44.1.04-66.15z"/><path fill="#78797b" d="M322.06 127.95c4.62-.25 9.26-.15 13.88.2.23 21.9.29 43.82-.04 65.72-4.62.14-9.25.19-13.87.09.02-22-.09-44.01.03-66.01z"/><path fill="#97999c" d="M401.09 128.22c7.64-.32 15.28-.41 22.93-.33.04 22.03.02 44.05 0 66.08-7.68.28-15.36-.13-23.03-.04.06-21.91-.14-43.81.1-65.71z"/><path fill="#757679" d="M1276.55 145.39c2.99-3.94 5.71-8.11 9.28-11.56.51 16.04-.01 32.11.32 48.16-.08 3.22.34 6.78-1.57 9.58-2.09 3.14-4.46 6.08-6.5 9.25 2.59.14 5.2.26 7.82.38.25 10.21.28 20.43 0 30.63-9.29.05-18.58.46-27.87.14.11-13.3.1-26.61.08-39.91-.15-6.81.5-13.66-.57-20.42l-.08-.6c6.21-8.67 12.91-16.97 19.09-25.65z"/><path fill="#fff" d="M1321.1 151.06c3.1-4.01 5.85-8.31 9.29-12.06.18 18.93.17 37.87.01 56.8-14.12-.11-28.24-.03-42.35-.05 10.89-14.98 22.06-29.77 33.05-44.69z"/><path fill="#86888b" d="M1512.8 155.81c2.95-3.78 5.81-7.68 9.21-11.07.47 18.62-.53 37.29.51 55.89-3.11 4.98-7.71 8.71-11.43 13.18-.34-16.96.09-33.91-.17-50.87-.08-2.5.19-5.15 1.88-7.13z"/><path fill="#6d6e71" d="M1257.54 171.64c1.07 6.76.42 13.61.57 20.42.02 13.3.03 26.61-.08 39.91-15.04 0-30.09.15-45.13-.1 11.31-15.95 23.22-31.48 34.69-47.31 3.3-4.32 6.37-8.82 9.95-12.92z"/><path fill="#757679" d="M1483.09 191.1c1.81-2.65 2.02 1.6 2.01 2.93-.04 23.26.08 46.53-.08 69.79-7 .26-14.01.52-21.01.27.2-13.36-.17-26.73.12-40.09.04-3.16-.21-6.32-.59-9.45l-.06-.51c6.52-7.65 12.85-15.5 19.61-22.94z"/><path fill="#898b8e" d="M1319.08 201.12c4.67-.16 9.39-.46 14.04.26-.17 10.13-.03 20.27-.07 30.41-4.67.35-9.35.29-14.02.01-.23-10.22-.2-20.46.05-30.68z"/><path fill="#a2a4a7" d="M1377.03 200.99c7.91-.14 15.83-.48 23.75-.11.1 10.35-.05 20.7.07 31.04-7.96.31-15.91-.06-23.87-.11.13-10.27-.05-20.55.05-30.82z"/><path fill="#6d6e71" d="M1456.45 222.46c2.28-2.7 4.65-5.33 7.09-7.91.38 3.13.63 6.29.59 9.45-.29 13.36.08 26.73-.12 40.09-14.03.09-28.07.19-42.1-.06 11.1-14.19 23.11-27.64 34.54-41.57z"/><path fill="#818285" d="M256.08 223.23c27.65.04 55.29.01 82.94.02 30.33-.59 60.68-.03 91.01-.3 7.65-.34 15.3-.19 22.95-.18.47 25.53 1.05 51.06 1.74 76.58-44.24.48-88.5-.24-132.74.41-21.98.01-43.95-.06-65.92.04-.08-25.53-.13-51.05.02-76.57z"/><path fill="#6d6e71" d="M261.12 228.19c14.64-.04 29.28 0 43.93.01 3.65-.02 7.29.27 10.92.64-.04 21.77-.23 43.53.06 65.29-4 .42-8.02.72-12.04.71-14.27-.04-28.55.08-42.82-.06-.23-22.2-.28-44.4-.05-66.59z"/><path fill="#898a8d" d="M358.17 228.25c10.24-.17 20.49-.5 30.73-.2.25 21.85-.12 43.71.14 65.56 3.51.11 7.02.35 10.53.65-4.06 1.53-8.44.69-12.65.73-9.57-.34-19.27.73-28.7-1.36-.23-21.79-.05-43.59-.05-65.38z"/><path fill="#929497" d="M388.9 228.05c6.72.21 13.43-.34 20.15.07-.04 22 .1 44-.08 66-3.13.19-6.27.34-9.4.14-3.51-.3-7.02-.54-10.53-.65-.26-21.85.11-43.71-.14-65.56z"/><path fill="#9b9da0" d="M409.05 228.12c8.96.05 17.92-.29 26.89-.28.01 22.14-.05 44.29-.01 66.44-8.99.12-17.98.13-26.96-.16.18-22 .04-44 .08-66z"/><path fill="#a3a5a8" d="M435.94 227.84c4.01-.11 8.02-.11 12.03-.03.4 6.72.37 13.46.4 20.19.49 15.42 1.16 30.85.9 46.28-4.44.16-8.89.15-13.34 0-.04-22.15.02-44.3.01-66.44z"/><path fill="#747578" d="M315.97 228.84c3.37-.17 6.74-.12 10.11.12.42 19.35.03 38.7.23 58.05.01 2.26.08 4.56-.44 6.78-3.19 1-6.57.39-9.84.34-.29-21.76-.1-43.52-.06-65.29z"/><path fill="#8b8c8f" d="M1511.25 230.2c10.58.03 21.18-.71 31.76-.17.1 11.32-.07 22.65-.04 33.98-10.59.46-21.19-.15-31.78-.22-.07-11.2-.27-22.4.06-33.59z"/><path fill="#97999c" d="M1543.01 230.03c8.98.02 17.98-.59 26.97-.13.1 11.39-.1 22.79.01 34.18-9.01.62-18.02-.3-27.02-.07-.03-11.33.14-22.66.04-33.98z"/><path fill="#a2a4a7" d="M1569.98 229.9c7.3.12 14.6-.47 21.9-.02-.1 11.41-.1 22.83-.02 34.24-7.29.4-14.59-.05-21.87-.04-.11-11.39.09-22.79-.01-34.18z"/></svg>